<svg xmlns="http://www.w3.org/2000/svg" xmlns:xlink="http://www.w3.org/1999/xlink" viewBox="0 0 750 750"><defs><style>.cls-1{fill:url(#linear-gradient);}.cls-2{fill:url(#linear-gradient-2);}.cls-3{fill:url(#linear-gradient-3);}.cls-4{fill:url(#linear-gradient-4);}.cls-5{fill:url(#linear-gradient-5);}.cls-6{fill:url(#linear-gradient-6);}.cls-7{fill:url(#linear-gradient-7);}.cls-8{fill:url(#linear-gradient-8);}.cls-9{fill:url(#linear-gradient-9);}.cls-10{fill:url(#linear-gradient-10);}.cls-11{fill:url(#linear-gradient-11);}.cls-12{fill:url(#linear-gradient-12);}.cls-13{fill:url(#linear-gradient-13);}.cls-14{fill:url(#linear-gradient-14);}.cls-15{fill:url(#linear-gradient-15);}.cls-16{fill:url(#linear-gradient-16);}.cls-17{fill:url(#linear-gradient-17);}.cls-18{fill:url(#linear-gradient-18);}</style><linearGradient id="linear-gradient" x1="52.74" y1="219.84" x2="386.94" y2="219.84" gradientUnits="userSpaceOnUse"><stop offset="0" stop-color="#428cdf"/><stop offset="0.53" stop-color="#4364f7"/><stop offset="1" stop-color="#0052d4"/></linearGradient><linearGradient id="linear-gradient-2" x1="184.03" y1="661.45" x2="255.65" y2="661.45" xlink:href="#linear-gradient"/><linearGradient id="linear-gradient-3" x1="184.03" y1="219.84" x2="255.65" y2="219.84" xlink:href="#linear-gradient"/><linearGradient id="linear-gradient-4" x1="88.55" y1="219.84" x2="160.16" y2="219.84" xlink:href="#linear-gradient"/><linearGradient id="linear-gradient-5" x1="279.52" y1="219.84" x2="351.13" y2="219.84" xlink:href="#linear-gradient"/><linearGradient id="linear-gradient-6" x1="697.26" y1="589.84" x2="554.03" y2="589.84" xlink:href="#linear-gradient"/><linearGradient id="linear-gradient-7" x1="649.52" y1="637.58" x2="554.03" y2="637.58" xlink:href="#linear-gradient"/><linearGradient id="linear-gradient-8" x1="697.26" y1="637.58" x2="673.39" y2="637.58" xlink:href="#linear-gradient"/><linearGradient id="linear-gradient-9" x1="697.26" y1="685.32" x2="554.03" y2="685.32" xlink:href="#linear-gradient"/><linearGradient id="linear-gradient-10" x1="697.26" y1="327.26" x2="554.03" y2="327.26" xlink:href="#linear-gradient"/><linearGradient id="linear-gradient-11" x1="697.26" y1="375" x2="554.03" y2="375" xlink:href="#linear-gradient"/><linearGradient id="linear-gradient-12" x1="697.26" y1="422.74" x2="673.39" y2="422.74" xlink:href="#linear-gradient"/><linearGradient id="linear-gradient-13" x1="649.52" y1="422.74" x2="554.03" y2="422.74" xlink:href="#linear-gradient"/><linearGradient id="linear-gradient-14" x1="5" y1="375" x2="745" y2="375" xlink:href="#linear-gradient"/><linearGradient id="linear-gradient-15" x1="697.26" y1="64.68" x2="554.03" y2="64.68" xlink:href="#linear-gradient"/><linearGradient id="linear-gradient-16" x1="577.9" y1="112.42" x2="554.03" y2="112.42" xlink:href="#linear-gradient"/><linearGradient id="linear-gradient-17" x1="697.26" y1="112.42" x2="601.77" y2="112.42" xlink:href="#linear-gradient"/><linearGradient id="linear-gradient-18" x1="697.26" y1="160.16" x2="554.03" y2="160.16" xlink:href="#linear-gradient"/></defs><title>classified</title><g id="Layer_2" data-name="Layer 2"><path class="cls-1" d="M219.84,52.74c-92.14,0-167.1,75-167.1,167.1s75,167.1,167.1,167.1,167.1-75,167.1-167.1-75-167.1-167.1-167.1Zm0,310.32c-79,0-143.23-64.25-143.23-143.23S140.86,76.61,219.84,76.61s143.23,64.25,143.23,143.23S298.82,363.06,219.84,363.06Zm0,0"/><path class="cls-2" d="M219.84,625.65a35.81,35.81,0,1,0,35.81,35.81,35.85,35.85,0,0,0-35.81-35.81Zm0,47.74a11.94,11.94,0,1,1,11.94-11.94,11.94,11.94,0,0,1-11.94,11.94Zm0,0"/><path class="cls-3" d="M219.84,184a35.81,35.81,0,1,0,35.81,35.81A35.85,35.85,0,0,0,219.84,184Zm0,47.74a11.94,11.94,0,1,1,11.94-11.94,11.95,11.95,0,0,1-11.94,11.94Zm0,0"/><path class="cls-4" d="M124.35,184a35.81,35.81,0,1,0,35.81,35.81A35.85,35.85,0,0,0,124.35,184Zm0,47.74a11.94,11.94,0,1,1,11.94-11.94,11.95,11.95,0,0,1-11.94,11.94Zm0,0"/><path class="cls-5" d="M279.52,219.84A35.81,35.81,0,1,0,315.32,184a35.85,35.85,0,0,0-35.81,35.81Zm47.74,0a11.94,11.94,0,1,1-11.94-11.94,11.95,11.95,0,0,1,11.94,11.94Zm0,0"/><rect class="cls-6" x="554.03" y="577.9" width="143.23" height="23.87" rx="11.94" ry="11.94"/><rect class="cls-7" x="554.03" y="625.65" width="95.48" height="23.87" rx="11.94" ry="11.94"/><rect class="cls-8" x="673.39" y="625.65" width="23.87" height="23.87" rx="11.94" ry="11.94"/><rect class="cls-9" x="554.03" y="673.39" width="143.23" height="23.87" rx="11.94" ry="11.94"/><rect class="cls-10" x="554.03" y="315.32" width="143.23" height="23.87" rx="11.94" ry="11.94"/><rect class="cls-11" x="554.03" y="363.06" width="143.23" height="23.87" rx="11.94" ry="11.94"/><rect class="cls-12" x="673.39" y="410.81" width="23.87" height="23.87" rx="11.94" ry="11.94"/><rect class="cls-13" x="554.03" y="410.81" width="95.48" height="23.87" rx="11.94" ry="11.94"/><path class="cls-14" d="M542.1,219.84h167.1A35.81,35.81,0,0,0,745,184V40.81A35.81,35.81,0,0,0,709.19,5H542.1a35.81,35.81,0,0,0-35.81,35.81v59.68H460.2a15.91,15.91,0,0,0-11.25,4.66l-31.17,31.17C385.18,59.34,308.93,5.17,220.26,5,104.88,4.78,9,97.13,5.13,212.44c-3.38,100,62,185.48,152.4,212.95l4.06,6.81a75,75,0,0,1,10.51,37.14L137.92,640.21a83.79,83.79,0,0,0-1.63,16.39v3.47c0,43.5,35.45,82.42,78.88,84.8a83.65,83.65,0,0,0,88.21-83.42V656.6a84.39,84.39,0,0,0-1.62-16.39L267.6,469.35a74.78,74.78,0,0,1,10.51-37.13l4.06-6.82c6.12-1.87,12.1-4,18-6.44L447.41,642.36a15.91,15.91,0,0,0,13.29,7.16h45.59v59.68A35.81,35.81,0,0,0,542.1,745h167.1A35.81,35.81,0,0,0,745,709.19V566a35.81,35.81,0,0,0-35.81-35.81H542.1A35.81,35.81,0,0,0,506.29,566v59.68H473.54a15.91,15.91,0,0,1-13.29-7.16L322,408.76a216.34,216.34,0,0,0,74.48-67l40.5,40.5a15.91,15.91,0,0,0,11.25,4.66h58v59.68a35.81,35.81,0,0,0,35.81,35.81h167.1A35.81,35.81,0,0,0,745,446.61V303.39a35.81,35.81,0,0,0-35.81-35.81H542.1a35.81,35.81,0,0,0-35.81,35.81v59.68H458.15a15.91,15.91,0,0,1-11.25-4.66l-37.55-37.56a212.56,212.56,0,0,0,17.06-159.41L458.83,129a15.91,15.91,0,0,1,11.25-4.66h36.21V184a35.85,35.85,0,0,0,35.81,35.81ZM530.16,566A11.94,11.94,0,0,1,542.1,554h167.1A11.94,11.94,0,0,1,721.13,566V709.19a11.94,11.94,0,0,1-11.94,11.94H542.1a11.94,11.94,0,0,1-11.94-11.94Zm0-262.58a11.94,11.94,0,0,1,11.94-11.94h167.1a11.94,11.94,0,0,1,11.94,11.94V446.61a11.94,11.94,0,0,1-11.94,11.94H542.1a11.94,11.94,0,0,1-11.94-11.94Zm-251.8,341.5a59.56,59.56,0,0,1,1.16,11.72v3.64c0,31.4-23.77,58.35-55.08,60.71a59.74,59.74,0,0,1-64.27-59.5V656.6a59.14,59.14,0,0,1,1.16-11.69l32.5-162.49h52.26ZM244.51,458.55H195.16a98.6,98.6,0,0,0-7-26.47,215,215,0,0,0,31.68,2.6,214.57,214.57,0,0,0,31.66-2.6,99.18,99.18,0,0,0-7,26.47Zm-24.67-47.74C112,410.81,24.81,321,29,212.29,32.86,113.18,113.18,32.86,212.29,29,321,24.81,410.81,112,410.81,219.84c0,105.3-85.67,191-191,191Zm310.32-370A11.94,11.94,0,0,1,542.1,28.87h167.1a11.94,11.94,0,0,1,11.94,11.94V184A11.94,11.94,0,0,1,709.19,196H542.1A11.94,11.94,0,0,1,530.16,184Zm0,0"/><rect class="cls-15" x="554.03" y="52.74" width="143.23" height="23.87" rx="11.94" ry="11.94"/><rect class="cls-16" x="554.03" y="100.48" width="23.87" height="23.87" rx="11.94" ry="11.94"/><rect class="cls-17" x="601.77" y="100.48" width="95.48" height="23.87" rx="11.94" ry="11.94"/><rect class="cls-18" x="554.03" y="148.23" width="143.23" height="23.87" rx="11.94" ry="11.94"/></g></svg>