<svg id="Layer_1" data-name="Layer 1" xmlns="http://www.w3.org/2000/svg" xmlns:xlink="http://www.w3.org/1999/xlink" viewBox="0 0 914 680"><defs><style>.cls-1{fill:url(#linear-gradient);}.cls-2{fill:url(#linear-gradient-2);}.cls-3{fill:#fff;opacity:0.5;}.cls-4{fill:#0052d4;}.cls-5{fill:url(#linear-gradient-3);}.cls-6{fill:url(#linear-gradient-4);}.cls-7{fill:url(#linear-gradient-5);}</style><linearGradient id="linear-gradient" x1="895.76" y1="248.14" x2="17" y2="248.14" gradientUnits="userSpaceOnUse"><stop offset="0" stop-color="#428cdf"/><stop offset="0.53" stop-color="#4364f7"/><stop offset="1" stop-color="#0052d4"/></linearGradient><linearGradient id="linear-gradient-2" x1="784.42" y1="568.08" x2="552.79" y2="568.08" xlink:href="#linear-gradient"/><linearGradient id="linear-gradient-3" x1="869" y1="209.3" x2="434.64" y2="209.3" xlink:href="#linear-gradient"/><linearGradient id="linear-gradient-4" x1="869" y1="107.55" x2="434.64" y2="107.55" xlink:href="#linear-gradient"/><linearGradient id="linear-gradient-5" x1="869" y1="308.71" x2="434.64" y2="308.71" xlink:href="#linear-gradient"/></defs><title>logo</title><path class="cls-1" d="M80.25,385V62.13A31.62,31.62,0,0,0,48.12,30.51h0A31.62,31.62,0,0,0,17,62.13V453.78a12,12,0,0,0,12,12H864.13a31.62,31.62,0,0,0,31.62-31.62v-5.53A31.62,31.62,0,0,0,864.13,397H92.25A12,12,0,0,1,80.25,385Z"/><path class="cls-2" d="M581,465.73C606.23,523.09,595.14,595,556.7,644c-9.67,12.33-.24,30.3,15.37,28.95,46.43-4,91.7-22,127.84-51.46,47.58-38.83,78.73-97.17,84.51-158.31"/><path class="cls-3" d="M741.58,501.25a12.25,12.25,0,0,0-1.91,3.11c-4.08,9.5-25.77,59.62-33.76,69.2-9.56,11.47,3.82,15.3,17.21,0C734.13,561,749,523.85,754,511a12.24,12.24,0,0,0-1.1-11.3C750.68,496.56,747.08,494.77,741.58,501.25Z"/><rect class="cls-4" x="134" y="73.5" width="267.19" height="267.19" rx="6.67" ry="6.67"/><rect class="cls-5" x="434.64" y="182.03" width="434.36" height="54.53" rx="27.27" ry="27.27"/><rect class="cls-6" x="434.64" y="80.29" width="434.36" height="54.53" rx="27.27" ry="27.27"/><rect class="cls-7" x="434.64" y="283.51" width="434.36" height="50.4" rx="25.2" ry="25.2"/></svg>