<svg xmlns="http://www.w3.org/2000/svg" xmlns:xlink="http://www.w3.org/1999/xlink" viewBox="0 0 750 750"><defs><style>.cls-1{fill:url(#linear-gradient);}.cls-2{fill:url(#linear-gradient-2);}.cls-3{fill:url(#linear-gradient-3);}.cls-4{fill:url(#linear-gradient-4);}.cls-5{fill:url(#linear-gradient-5);}.cls-6{fill:url(#linear-gradient-6);}.cls-7{fill:url(#linear-gradient-7);}.cls-8{fill:url(#linear-gradient-8);}.cls-9{fill:url(#linear-gradient-9);}.cls-10{fill:url(#linear-gradient-10);}.cls-11{fill:url(#linear-gradient-11);}.cls-12{fill:url(#linear-gradient-12);}.cls-13{fill:url(#linear-gradient-13);}.cls-14{fill:url(#linear-gradient-14);}.cls-15{fill:url(#linear-gradient-15);}.cls-16{fill:url(#linear-gradient-16);}.cls-17{fill:url(#linear-gradient-17);}</style><linearGradient id="linear-gradient" x1="697.26" y1="375" x2="52.74" y2="375" gradientUnits="userSpaceOnUse"><stop offset="0" stop-color="#428cdf"/><stop offset="0.53" stop-color="#4364f7"/><stop offset="1" stop-color="#0052d4"/></linearGradient><linearGradient id="linear-gradient-2" x1="649.52" y1="685.32" x2="625.65" y2="685.32" xlink:href="#linear-gradient"/><linearGradient id="linear-gradient-3" x1="506.29" y1="530.16" x2="267.58" y2="530.16" xlink:href="#linear-gradient"/><linearGradient id="linear-gradient-4" x1="554.03" y1="530.16" x2="219.84" y2="530.16" xlink:href="#linear-gradient"/><linearGradient id="linear-gradient-5" x1="386.94" y1="195.97" x2="100.48" y2="195.97" xlink:href="#linear-gradient"/><linearGradient id="linear-gradient-6" x1="554.03" y1="64.68" x2="410.81" y2="64.68" xlink:href="#linear-gradient"/><linearGradient id="linear-gradient-7" x1="434.68" y1="112.42" x2="410.81" y2="112.42" xlink:href="#linear-gradient"/><linearGradient id="linear-gradient-8" x1="554.03" y1="112.42" x2="458.55" y2="112.42" xlink:href="#linear-gradient"/><linearGradient id="linear-gradient-9" x1="554.03" y1="160.16" x2="410.81" y2="160.16" xlink:href="#linear-gradient"/><linearGradient id="linear-gradient-10" x1="554.03" y1="207.9" x2="410.81" y2="207.9" xlink:href="#linear-gradient"/><linearGradient id="linear-gradient-11" x1="506.29" y1="255.65" x2="410.81" y2="255.65" xlink:href="#linear-gradient"/><linearGradient id="linear-gradient-12" x1="554.03" y1="255.65" x2="530.16" y2="255.65" xlink:href="#linear-gradient"/><linearGradient id="linear-gradient-13" x1="195.97" y1="673.39" x2="100.48" y2="673.39" xlink:href="#linear-gradient"/><linearGradient id="linear-gradient-14" x1="195.97" y1="625.65" x2="100.48" y2="625.65" xlink:href="#linear-gradient"/><linearGradient id="linear-gradient-15" x1="195.97" y1="577.9" x2="100.48" y2="577.9" xlink:href="#linear-gradient"/><linearGradient id="linear-gradient-16" x1="195.97" y1="530.16" x2="100.48" y2="530.16" xlink:href="#linear-gradient"/><linearGradient id="linear-gradient-17" x1="195.97" y1="482.42" x2="100.48" y2="482.42" xlink:href="#linear-gradient"/></defs><title>choose</title><g id="Layer_2" data-name="Layer 2"><path class="cls-1" d="M649.52,243.58V152.7a28.35,28.35,0,0,0-28.35-28.35H601.91a.13.13,0,0,1-.13-.13V33.35A28.35,28.35,0,0,0,573.43,5H81.09A28.35,28.35,0,0,0,52.74,33.35V685.19A59.81,59.81,0,0,0,112.55,745H633.1a64.15,64.15,0,0,0,64.15-64.15V272.06a28.35,28.35,0,0,0-28.35-28.35H649.65A.13.13,0,0,1,649.52,243.58Zm-537,477.55a35.94,35.94,0,0,1-35.94-35.94V48.27A19.4,19.4,0,0,1,96,28.87h462.5a19.4,19.4,0,0,1,19.4,19.4V685.32a59.36,59.36,0,0,0,11.81,35.6.13.13,0,0,1-.1.2Zm560.84-35.81A35.86,35.86,0,0,1,640.08,721c-21,1.46-38.3-15.56-38.3-36.64,0-85.72,0-453.19,0-524.25a11.92,11.92,0,0,1,11.92-11.92h0a12,12,0,0,1,11.95,11.95V637.58a11.94,11.94,0,0,0,11.94,11.94h0a11.94,11.94,0,0,0,11.94-11.94V279.52a11.94,11.94,0,0,1,11.94-11.94h0a11.94,11.94,0,0,1,11.94,11.94Zm0,0"/><rect class="cls-2" x="625.65" y="673.39" width="23.87" height="23.87" rx="11.94" ry="11.94"/><path class="cls-3" d="M463,556.53,422.74,545V543.1a2.56,2.56,0,0,1,1-2,59.71,59.71,0,0,0,22.88-46.73V472.54c0-31.58-23.65-58.56-53.87-61.44a59.66,59.66,0,0,0-65.49,59.39v23.87a59.71,59.71,0,0,0,22.88,46.73,2.56,2.56,0,0,1,1,2V545l-40.27,11.49a60,60,0,0,0-43.28,57.4v2.57a33,33,0,0,0,33,33H473.27a33,33,0,0,0,33-33v-2.57A60,60,0,0,0,463,556.53Zm10.27,69.12H300.6a9.15,9.15,0,0,1-9.15-9.15v-2.57a36,36,0,0,1,26-34.44l48.92-14A11.94,11.94,0,0,0,375,554V535.48a11.93,11.93,0,0,0-5.93-10.31h0a35.42,35.42,0,0,1-17.94-30.81V470.48a35.81,35.81,0,0,1,39.35-35.65c18.1,1.73,32.26,18.29,32.26,37.7v21.82a35.42,35.42,0,0,1-17.94,30.81h0a11.93,11.93,0,0,0-5.93,10.31V554a11.94,11.94,0,0,0,8.65,11.48l48.91,14a36,36,0,0,1,26,34.44v2.57A9.15,9.15,0,0,1,473.27,625.65Zm9.15,0"/><path class="cls-4" d="M248.19,697.26h277.5A28.35,28.35,0,0,0,554,668.91V391.41a28.35,28.35,0,0,0-28.35-28.35H248.19a28.35,28.35,0,0,0-28.35,28.35v277.5A28.35,28.35,0,0,0,248.19,697.26Zm23.87-310.32H501.81a28.35,28.35,0,0,1,28.35,28.35V645a28.35,28.35,0,0,1-28.35,28.35H272.06A28.35,28.35,0,0,1,243.71,645V415.28A28.35,28.35,0,0,1,272.06,386.94Zm-28.35,0"/><path class="cls-5" d="M243.71,339.19c79,0,143.23-64.25,143.23-143.23S322.69,52.74,243.71,52.74,100.48,117,100.48,196s64.25,143.23,143.23,143.23Zm0-23.87a119.49,119.49,0,0,1-109.13-71.22,59.09,59.09,0,0,1,38.12,17.08l2.47,2.47a54.12,54.12,0,0,0,92.41-38.27V213.87a41.82,41.82,0,0,0-41.77-41.77,17.92,17.92,0,0,1-17.9-17.9v-17.9a83.76,83.76,0,0,0-15.37-48,118.12,118.12,0,0,1,40-11.13,66.76,66.76,0,0,0-.78,8.12,68,68,0,0,0,25.66,53.4L277.77,155a36.26,36.26,0,0,1,13.68,28.44,60.39,60.39,0,0,0,60.31,60.31c.43,0,.88-.08,1.31-.09a119.49,119.49,0,0,1-109.37,71.71ZM363.06,196A119.55,119.55,0,0,1,360.79,219a58.29,58.29,0,0,1-9,.8,36.47,36.47,0,0,1-36.44-36.44,60,60,0,0,0-22.63-47.08L272.35,120A44.25,44.25,0,0,1,255.65,85.3a41.44,41.44,0,0,1,.79-8A119.5,119.5,0,0,1,363.06,196ZM172.19,100.64A60,60,0,0,1,184,136.29v17.9A41.82,41.82,0,0,0,225.81,196a17.92,17.92,0,0,1,17.9,17.9v11.52a30.26,30.26,0,0,1-51.66,21.4l-2.47-2.47a83,83,0,0,0-59.08-24.48,27,27,0,0,1-3.8-.36,118.91,118.91,0,0,1,45.49-118.84Zm0,0"/><rect class="cls-6" x="410.81" y="52.74" width="143.23" height="23.87" rx="11.94" ry="11.94"/><rect class="cls-7" x="410.81" y="100.48" width="23.87" height="23.87" rx="11.94" ry="11.94"/><rect class="cls-8" x="458.55" y="100.48" width="95.48" height="23.87" rx="11.94" ry="11.94"/><rect class="cls-9" x="410.81" y="148.23" width="143.23" height="23.87" rx="11.94" ry="11.94"/><rect class="cls-10" x="410.81" y="195.97" width="143.23" height="23.87" rx="11.94" ry="11.94"/><rect class="cls-11" x="410.81" y="243.71" width="95.48" height="23.87" rx="11.94" ry="11.94"/><rect class="cls-12" x="530.16" y="243.71" width="23.87" height="23.87" rx="11.94" ry="11.94"/><rect class="cls-13" x="100.48" y="661.45" width="95.48" height="23.87" rx="11.94" ry="11.94"/><rect class="cls-14" x="100.48" y="613.71" width="95.48" height="23.87" rx="11.94" ry="11.94"/><rect class="cls-15" x="100.48" y="565.97" width="95.48" height="23.87" rx="11.94" ry="11.94"/><rect class="cls-16" x="100.48" y="518.23" width="95.48" height="23.87" rx="11.94" ry="11.94"/><rect class="cls-17" x="100.48" y="470.48" width="95.48" height="23.87" rx="11.94" ry="11.94"/></g></svg>