<svg xmlns="http://www.w3.org/2000/svg" xmlns:xlink="http://www.w3.org/1999/xlink" viewBox="0 0 750 750"><defs><style>.cls-1{fill:url(#linear-gradient);}.cls-2{fill:url(#linear-gradient-2);}.cls-3{fill:url(#linear-gradient-3);}.cls-4{fill:url(#linear-gradient-4);}.cls-5{fill:url(#linear-gradient-5);}</style><linearGradient id="linear-gradient" x1="634.32" y1="427.75" x2="516.03" y2="427.75" gradientUnits="userSpaceOnUse"><stop offset="0" stop-color="#428cdf"/><stop offset="0.53" stop-color="#4364f7"/><stop offset="1" stop-color="#0052d4"/></linearGradient><linearGradient id="linear-gradient-2" x1="698.75" y1="375.05" x2="103.03" y2="375.05" xlink:href="#linear-gradient"/><linearGradient id="linear-gradient-3" x1="233.98" y1="137.89" x2="115.68" y2="137.89" xlink:href="#linear-gradient"/><linearGradient id="linear-gradient-4" x1="298.4" y1="137.89" x2="51.25" y2="137.89" xlink:href="#linear-gradient"/><linearGradient id="linear-gradient-5" x1="544.82" y1="647.44" x2="205.18" y2="647.44" xlink:href="#linear-gradient"/></defs><title>predict</title><g id="Layer_2" data-name="Layer 2"><path class="cls-1" d="M575.18,368.72a59,59,0,1,0,59.14,59,59.15,59.15,0,0,0-59.14-59Zm0,96.38a37.35,37.35,0,1,1,37.46-37.34,37.45,37.45,0,0,1-37.46,37.34Zm0,0"/><path class="cls-2" d="M674.74,440.63a3.1,3.1,0,0,1-1.15-2.45V417.33a3.09,3.09,0,0,1,1.16-2.45c5.22-4.07,11.87-10.37,16.53-14.92a24.84,24.84,0,0,0,4.13-30.21l-9.8-16.92a24.89,24.89,0,0,0-28.19-11.51c-6.29,1.76-15.09,4.35-21.25,6.84a3.17,3.17,0,0,1-2.72-.22l-18.13-10.45a3.1,3.1,0,0,1-1.55-2.24c-.93-6.56-3.06-15.42-4.68-21.72A24.88,24.88,0,0,0,585,294.87H565.36a24.9,24.9,0,0,0-24.09,18.67c-1.62,6.29-3.76,15.16-4.68,21.73a3.11,3.11,0,0,1-1.55,2.23l-18.13,10.44a3.13,3.13,0,0,1-2.73.23c-6.16-2.48-15-5.08-21.25-6.84a24.89,24.89,0,0,0-28.19,11.51l-9.79,16.92A24.83,24.83,0,0,0,459.08,400a221.62,221.62,0,0,0,16.53,14.92,3.11,3.11,0,0,1,1.16,2.45v20.85a3.11,3.11,0,0,1-1.16,2.45,219.94,219.94,0,0,0-16.53,14.92,24.83,24.83,0,0,0-6.4,25H330L367.42,443a83.58,83.58,0,0,0,24.19-67l-.05-.51a75.19,75.19,0,0,1,82-81.79,83.47,83.47,0,0,0,67.26-24.16L601,209.44a31.79,31.79,0,0,0,36.62-50.94l-21.36-21.36A10.84,10.84,0,0,0,601,152.46l21.36,21.37A10.12,10.12,0,0,1,608,188.13l-.51-.51L464.43,44.54l0,0-.5-.49a10.12,10.12,0,1,1,14.3-14.31l90.05,90a10.84,10.84,0,1,0,15.33-15.33l-90-90A31.78,31.78,0,0,0,442.61,51l-60.15,60.16a83.5,83.5,0,0,0-24.16,67.26,75.19,75.19,0,0,1-81.79,82l-.5,0a83.59,83.59,0,0,0-67,24.18l-60,60a31.78,31.78,0,0,0-36.63,50.93l90.09,90.09A32.29,32.29,0,0,0,189,502.74l-24.87,74.75c-.29.88-2.35,10.74-2.35,15V702.36A42.69,42.69,0,0,0,204.45,745H545.54a42.69,42.69,0,0,0,42.64-42.64V592.52a42.39,42.39,0,0,0-2.67-14.84s0-.09,0-.13l-5.54-16.89H585A24.88,24.88,0,0,0,609.07,542c1.63-6.29,3.76-15.16,4.68-21.71h0a3.1,3.1,0,0,1,1.55-2.24l18.13-10.44a3.16,3.16,0,0,1,2.73-.23c6.16,2.48,15,5.09,21.25,6.84a24.88,24.88,0,0,0,28.19-11.5l9.8-16.93a24.85,24.85,0,0,0-4.14-30.21,219.94,219.94,0,0,0-16.53-14.92ZM352.09,427.71l-58.85,58.85L165.49,358.82l29.07-29.07.45,0H377.69A96.58,96.58,0,0,0,370,377.54l0,.51a62,62,0,0,1-17.93,49.66ZM274,282l.5,0a96.86,96.86,0,0,0,105.37-105.7,61.92,61.92,0,0,1,17.91-49.86l59-59L584.51,195.29l-59,59a62,62,0,0,1-49.86,17.92,96.53,96.53,0,0,0-77.74,27.93,98.21,98.21,0,0,0-7.46,8.38,10.89,10.89,0,0,0-2.88-.4H216.22l8.12-8.12A62,62,0,0,1,274,282Zm-149.3,91.08A10.12,10.12,0,0,1,142,366L285.58,509.56v0l.5.5a10.12,10.12,0,0,1-14.31,14.31h0l-144.1-144.1a10,10,0,0,1-3-7.16ZM209.6,509.6a11.05,11.05,0,0,1,9.43-7.31l37.41,37.42a31.79,31.79,0,0,0,50.94-36.63l.89-.89H464.45l.29.49a24.9,24.9,0,0,0,28.19,11.51c6.3-1.76,15.1-4.35,21.26-6.84a3.17,3.17,0,0,1,2.72.22L535,518a3.12,3.12,0,0,1,1.54,2.24c.93,6.56,3.06,15.42,4.68,21.72a25,25,0,0,0,3.63,7.91H204.45a43.16,43.16,0,0,0-8.54.86ZM566.5,702.36a21,21,0,0,1-21,21H204.45a21,21,0,0,1-21-21V592.52a21,21,0,0,1,21-21H545.55a21,21,0,0,1,21,21ZM676.64,474.89l-9.79,16.93a3.2,3.2,0,0,1-3.63,1.47,197.89,197.89,0,0,1-18.94-6,24.65,24.65,0,0,0-21.66,1.54l-18.13,10.44a24.61,24.61,0,0,0-12.19,18c-.62,4.34-2.11,11.19-4.21,19.32A3.21,3.21,0,0,1,585,539H565.29a3.19,3.19,0,0,1-3-2.4,197.6,197.6,0,0,1-4.21-19.32,24.63,24.63,0,0,0-12.19-18l-18.13-10.44a24.61,24.61,0,0,0-21.65-1.54,198.62,198.62,0,0,1-18.94,6,3.2,3.2,0,0,1-3.63-1.47l-3.26-5.63,0,0-6.52-11.25a3.18,3.18,0,0,1,.54-3.85,195.83,195.83,0,0,1,14.69-13.31,24.61,24.61,0,0,0,9.52-19.55V417.33a24.6,24.6,0,0,0-9.52-19.55,197.55,197.55,0,0,1-14.69-13.31,3.18,3.18,0,0,1-.54-3.85l9.8-16.93a3.2,3.2,0,0,1,3.63-1.47,197.61,197.61,0,0,1,18.93,6,24.67,24.67,0,0,0,21.66-1.54l18.13-10.44a24.63,24.63,0,0,0,12.19-18A197.12,197.12,0,0,1,562.27,319a3.2,3.2,0,0,1,3.1-2.41H585a3.21,3.21,0,0,1,3.1,2.41c2.1,8.13,3.59,15,4.21,19.32a24.61,24.61,0,0,0,12.19,18l18.13,10.44a24.65,24.65,0,0,0,21.65,1.54,198.63,198.63,0,0,1,18.94-6,3.2,3.2,0,0,1,3.63,1.47l9.79,16.93a3.17,3.17,0,0,1-.53,3.85c-6,5.89-11.24,10.61-14.69,13.31a24.6,24.6,0,0,0-9.51,19.55v20.85a24.6,24.6,0,0,0,9.51,19.55A197.18,197.18,0,0,1,676.11,471a3.17,3.17,0,0,1,.53,3.85Zm0,0"/><path class="cls-3" d="M140.84,173.81a10.84,10.84,0,0,0,2.9-15.06,37.05,37.05,0,0,1-6.38-20.87,37.47,37.47,0,1,1,37.46,37.35,10.84,10.84,0,1,0,0,21.68,59.07,59.07,0,1,0-49-26,10.84,10.84,0,0,0,15,2.9Zm0,0"/><path class="cls-4" d="M116.56,217.71l18.13,10.44a3.15,3.15,0,0,1,1.56,2.24c.93,6.55,3.06,15.42,4.68,21.72A24.88,24.88,0,0,0,165,270.78h19.62a24.9,24.9,0,0,0,24.1-18.67c1.62-6.29,3.76-15.17,4.68-21.72h0a3.13,3.13,0,0,1,1.55-2.24l18.13-10.44a3.17,3.17,0,0,1,2.72-.23c6.16,2.48,15,5.09,21.26,6.84a24.88,24.88,0,0,0,28.19-11.5l9.79-16.92a24.84,24.84,0,0,0-4.13-30.21c-4.66-4.56-11.31-10.85-16.53-14.92a3.12,3.12,0,0,1-1.16-2.45V127.46a3.12,3.12,0,0,1,1.16-2.45,221.34,221.34,0,0,0,16.53-14.91,24.84,24.84,0,0,0,4.13-30.21L285.26,63a24.89,24.89,0,0,0-28.19-11.5c-6.31,1.76-15.11,4.36-21.26,6.84a3.14,3.14,0,0,1-2.72-.23L215,47.63a3.11,3.11,0,0,1-1.55-2.24c-.93-6.56-3.06-15.43-4.68-21.72A24.9,24.9,0,0,0,184.63,5H165a24.88,24.88,0,0,0-24.09,18.67c-1.63,6.29-3.76,15.16-4.68,21.72a3.18,3.18,0,0,1-1.55,2.24L116.56,58.07a3.14,3.14,0,0,1-2.72.23,221.31,221.31,0,0,0-21.26-6.84A24.89,24.89,0,0,0,64.39,63L54.59,79.88a24.84,24.84,0,0,0,4.13,30.21C63.38,114.65,70,120.94,75.26,125a3.09,3.09,0,0,1,1.16,2.45v20.85a3.08,3.08,0,0,1-1.16,2.45c-5.22,4.07-11.87,10.37-16.53,14.92a24.84,24.84,0,0,0-4.13,30.21l9.79,16.93a24.91,24.91,0,0,0,28.2,11.5c6.29-1.75,15.09-4.35,21.25-6.84a3.14,3.14,0,0,1,2.72.23ZM86.79,203.43A3.21,3.21,0,0,1,83.15,202L73.36,185a3.16,3.16,0,0,1,.53-3.85,197.61,197.61,0,0,1,14.69-13.32,24.6,24.6,0,0,0,9.51-19.54V127.46a24.61,24.61,0,0,0-9.51-19.55A195.42,195.42,0,0,1,73.89,94.6a3.17,3.17,0,0,1-.53-3.85l9.79-16.93a3.2,3.2,0,0,1,3.63-1.47,198.68,198.68,0,0,1,18.94,6,24.65,24.65,0,0,0,21.66-1.54l18.13-10.44a24.61,24.61,0,0,0,12.19-18c.62-4.34,2.11-11.2,4.21-19.32a3.21,3.21,0,0,1,3.1-2.42h19.62a3.2,3.2,0,0,1,3.1,2.42,196.58,196.58,0,0,1,4.21,19.32,24.63,24.63,0,0,0,12.19,18l18.13,10.45a24.67,24.67,0,0,0,21.66,1.54,198.38,198.38,0,0,1,18.93-6,3.21,3.21,0,0,1,3.63,1.47l9.8,16.93a3.17,3.17,0,0,1-.54,3.85,194.11,194.11,0,0,1-14.69,13.31,24.61,24.61,0,0,0-9.52,19.55v20.86a24.6,24.6,0,0,0,9.52,19.54,197.55,197.55,0,0,1,14.69,13.31,3.19,3.19,0,0,1,.54,3.86L266.5,202a3.21,3.21,0,0,1-3.63,1.48,197.21,197.21,0,0,1-18.93-6.05,24.67,24.67,0,0,0-21.66,1.54l-18.13,10.44a24.62,24.62,0,0,0-12.19,18,197.07,197.07,0,0,1-4.21,19.32,3.2,3.2,0,0,1-3.1,2.42H165a3.21,3.21,0,0,1-3.1-2.42c-2.1-8.13-3.59-15-4.21-19.32a24.62,24.62,0,0,0-12.19-18l-18.13-10.44a24.7,24.7,0,0,0-21.66-1.54,198.23,198.23,0,0,1-18.94,6.05Zm0,0"/><path class="cls-5" d="M534,593.24H216a10.84,10.84,0,0,0-10.84,10.84V690.8A10.84,10.84,0,0,0,216,701.64h205a10.84,10.84,0,1,0,0-21.68H226.86v-65H250v13.73a32.52,32.52,0,0,0,65,0V614.92h7.23v13.73a32.52,32.52,0,1,0,65,0V614.92H523.14v65H467.3a10.84,10.84,0,1,0,0,21.68H534a10.84,10.84,0,0,0,10.84-10.84V604.08A10.84,10.84,0,0,0,534,593.24ZM293.33,628.65a10.84,10.84,0,0,1-21.68,0V614.92h21.68Zm72.27,0a10.84,10.84,0,0,1-21.68,0V614.92h21.68Zm0,0"/></g></svg>